<svg width="21" height="22" viewBox="0 0 21 22" fill="none" xmlns="http://www.w3.org/2000/svg">
<g clip-path="url(#clip0_1556_1443)">
<mask id="mask0_1556_1443" style="mask-type:luminance" maskUnits="userSpaceOnUse" x="0" y="1" width="21" height="21">
<path d="M20.4967 1.47754H0.766846V21.2074H20.4967V1.47754Z" fill="white"/>
</mask>
<g mask="url(#mask0_1556_1443)">
<path fill-rule="evenodd" clip-rule="evenodd" d="M10.64 1.47754C5.18037 1.47754 0.766846 5.99896 0.766846 11.5925C0.766846 16.0639 3.59475 19.8486 7.51779 21.1882C8.00828 21.2889 8.18795 20.9706 8.18795 20.7028C8.18795 20.4683 8.17178 19.6646 8.17178 18.827C5.42532 19.4301 4.85339 17.6212 4.85339 17.6212C4.41201 16.449 3.75804 16.1477 3.75804 16.1477C2.85913 15.528 3.82353 15.528 3.82353 15.528C4.82066 15.595 5.34387 16.5663 5.34387 16.5663C6.22642 18.1069 7.64856 17.6716 8.22068 17.4036C8.30233 16.7505 8.56405 16.2983 8.84192 16.0472C6.65143 15.8127 4.34674 14.9418 4.34674 11.0566C4.34674 9.95127 4.73881 9.047 5.36003 8.34372C5.26203 8.09258 4.91866 7.05408 5.45827 5.66416C5.45827 5.66416 6.29189 5.39616 8.17157 6.70244C8.97632 6.48103 9.80627 6.3684 10.64 6.36744C11.4737 6.36744 12.3233 6.48481 13.1082 6.70244C14.9879 5.39616 15.8216 5.66416 15.8216 5.66416C16.3612 7.05408 16.0176 8.09258 15.9197 8.34372C16.5572 9.047 16.9331 9.95127 16.9331 11.0566C16.9331 14.9418 14.6286 15.7958 12.4217 16.0472C12.7814 16.3652 13.0917 16.9681 13.0917 17.9227C13.0917 19.2791 13.0756 20.3678 13.0756 20.7027C13.0756 20.9706 13.2554 21.2889 13.7457 21.1884C17.6688 19.8485 20.4966 16.0639 20.4966 11.5925C20.5129 5.99896 16.0832 1.47754 10.64 1.47754Z" fill="#FEFEFE"/>
</g>
</g>
<defs>
<clipPath id="clip0_1556_1443">
<rect width="20.7164" height="20.7164" fill="white" transform="translate(0.273682 0.905518)"/>
</clipPath>
</defs>
</svg>
