<svg width="22" height="22" viewBox="0 0 22 22" fill="none" xmlns="http://www.w3.org/2000/svg">
<g clip-path="url(#clip0_1556_1428)">
<path d="M13.8931 11.3425C13.8931 11.9669 13.7079 12.5772 13.361 13.0963C13.0142 13.6154 12.5211 14.02 11.9443 14.259C11.3675 14.4979 10.7328 14.5604 10.1204 14.4386C9.50807 14.3168 8.94559 14.0161 8.5041 13.5746C8.06261 13.1332 7.76196 12.5707 7.64016 11.9584C7.51835 11.346 7.58086 10.7113 7.8198 10.1344C8.05873 9.55761 8.46334 9.06459 8.98247 8.71772C9.50159 8.37085 10.1119 8.1857 10.7363 8.1857C11.5732 8.18666 12.3756 8.51955 12.9674 9.11136C13.5592 9.70316 13.8921 10.5055 13.8931 11.3425ZM20.6012 7.00191V15.6831C20.5995 17.1477 20.017 18.5519 18.9813 19.5875C17.9457 20.6232 16.5415 21.2058 15.0769 21.2074H6.39571C4.93106 21.2058 3.52688 20.6232 2.49122 19.5875C1.45556 18.5519 0.872997 17.1477 0.871338 15.6831V7.00191C0.872997 5.53726 1.45556 4.13309 2.49122 3.09742C3.52688 2.06176 4.93106 1.4792 6.39571 1.47754H15.0769C16.5415 1.4792 17.9457 2.06176 18.9813 3.09742C20.017 4.13309 20.5995 5.53726 20.6012 7.00191ZM15.4715 11.3425C15.4715 10.406 15.1938 9.49046 14.6735 8.71176C14.1531 7.93307 13.4136 7.32615 12.5484 6.96776C11.6831 6.60936 10.731 6.51559 9.8125 6.6983C8.89396 6.881 8.05023 7.33198 7.38801 7.99421C6.72579 8.65644 6.2748 9.50017 6.09209 10.4187C5.90938 11.3373 6.00316 12.2893 6.36155 13.1546C6.71995 14.0197 7.32687 14.7593 8.10556 15.2796C8.88426 15.8 9.79975 16.0777 10.7363 16.0777C11.9917 16.0762 13.1953 15.5769 14.083 14.6892C14.9707 13.8014 15.4701 12.5979 15.4715 11.3425ZM17.0498 6.21271C17.0498 5.97858 16.9804 5.7497 16.8504 5.55503C16.7203 5.36036 16.5354 5.20863 16.319 5.11903C16.1027 5.02943 15.8648 5.00598 15.6351 5.05167C15.4055 5.09734 15.1945 5.21009 15.029 5.37564C14.8635 5.5412 14.7507 5.75213 14.705 5.98176C14.6594 6.2114 14.6828 6.44942 14.7723 6.66573C14.862 6.88204 15.0137 7.06692 15.2084 7.197C15.4031 7.32708 15.632 7.39651 15.866 7.39651C16.1801 7.39651 16.4811 7.27178 16.7031 7.04978C16.9251 6.82777 17.0498 6.52668 17.0498 6.21271Z" fill="#FEFEFE"/>
</g>
<defs>
<clipPath id="clip0_1556_1428">
<rect width="20.7164" height="20.7164" fill="white" transform="translate(0.378174 0.905518)"/>
</clipPath>
</defs>
</svg>
