<svg width="22" height="22" viewBox="0 0 22 22" fill="none" xmlns="http://www.w3.org/2000/svg">
<g clip-path="url(#clip0_1556_1434)">
<mask id="mask0_1556_1434" style="mask-type:luminance" maskUnits="userSpaceOnUse" x="1" y="1" width="20" height="21">
<path d="M20.8651 1.47754H1.13525V21.2074H20.8651V1.47754Z" fill="white"/>
</mask>
<g mask="url(#mask0_1556_1434)">
<path d="M20.8651 1.47754H1.13525V21.2074H20.8651V1.47754Z" fill="#880707" fill-opacity="0.01"/>
<path fill-rule="evenodd" clip-rule="evenodd" d="M5.62451 20.7534V8.0536H1.40381V20.7533L5.62451 20.7534ZM3.5146 6.32029C4.98598 6.32029 5.90253 5.34428 5.90253 4.12562C5.87471 2.87985 4.98598 1.9314 3.54219 1.9314C2.09817 1.93144 1.1543 2.87989 1.1543 4.12566C1.1543 5.34432 2.07035 6.32033 3.48681 6.32033L3.5146 6.32029ZM7.96049 20.7534C7.96049 20.7534 8.01587 9.24518 7.96049 8.05363H12.1818V9.89537H12.1538C12.7089 9.02872 13.7089 7.75541 15.9857 7.75541C18.7635 7.75541 20.8456 9.57052 20.8456 13.4714V20.7534H16.625V13.9594C16.625 12.2523 16.0142 11.0873 14.4863 11.0873C13.3205 11.0873 12.6257 11.8727 12.3206 12.6319C12.209 12.9021 12.1818 13.2816 12.1818 13.6612V20.7534H7.96049Z" fill="#FEFEFE"/>
</g>
<path d="M20.3718 1.97095H1.62842V20.7143H20.3718V1.97095Z" stroke="#880707" stroke-opacity="0.01" stroke-width="0.986494"/>
</g>
<defs>
<clipPath id="clip0_1556_1434">
<rect width="20.7164" height="20.7164" fill="white" transform="translate(0.641846 0.905518)"/>
</clipPath>
</defs>
</svg>
