<svg width="21" height="22" viewBox="0 0 21 22" fill="none" xmlns="http://www.w3.org/2000/svg">
<g clip-path="url(#clip0_1556_1431)">
<path d="M6.7081 19.5638C14.1533 19.5638 18.2257 13.2377 18.2257 7.75188C18.2257 7.57224 18.2257 7.39328 18.2139 7.21521C19.0061 6.62751 19.6898 5.89997 20.2333 5.06632C19.4945 5.40198 18.7107 5.62232 17.9082 5.71944C18.7534 5.20054 19.3858 4.38463 19.6879 3.42327C18.8932 3.90688 18.024 4.24771 17.1175 4.43096C15.5844 2.75913 13.0203 2.67842 11.3901 4.25064C10.3386 5.26461 9.8927 6.77546 10.219 8.21728C6.96458 8.04978 3.93207 6.47329 1.87664 3.87967C0.80222 5.77654 1.35094 8.20333 3.12993 9.42145C2.48564 9.4019 1.85559 9.2236 1.29262 8.90187C1.29262 8.91896 1.29262 8.93673 1.29262 8.95449C1.29306 10.9306 2.65137 12.6327 4.5402 13.0241C3.94435 13.1907 3.3189 13.2152 2.71232 13.0954C3.24262 14.7866 4.76227 15.945 6.49413 15.9783C5.06064 17.1337 3.28997 17.7608 1.4669 17.759C1.14487 17.7584 0.823265 17.7382 0.503418 17.6989C2.35453 18.9172 4.50863 19.5634 6.7081 19.5605" fill="#FEFEFE"/>
</g>
<defs>
<clipPath id="clip0_1556_1431">
<rect width="20.7164" height="20.7164" fill="white" transform="translate(0.0100098 0.905518)"/>
</clipPath>
</defs>
</svg>
