<svg width="22" height="22" viewBox="0 0 22 22" fill="none" xmlns="http://www.w3.org/2000/svg">
<g clip-path="url(#clip0_1556_1419)">
<mask id="mask0_1556_1419" style="mask-type:luminance" maskUnits="userSpaceOnUse" x="1" y="1" width="21" height="21">
<path d="M21.1288 1.47754H1.39893V21.2074H21.1288V1.47754Z" fill="white"/>
</mask>
<g mask="url(#mask0_1556_1419)">
<path d="M15.2019 9.7915C14.0881 9.7915 13.7301 10.8655 13.6506 11.5019V11.5417L13.4915 12.1384C13.9688 12.5362 14.5655 12.8146 15.1621 12.8146C15.9577 12.8146 16.6737 12.1384 16.7134 11.2632C16.7134 10.4677 16.0372 9.7915 15.2019 9.7915Z" fill="#FEFEFE"/>
<path d="M11.2639 1.47754C5.81429 1.47754 1.39893 5.8929 1.39893 11.3425C1.39893 16.792 5.81429 21.2074 11.2639 21.2074C16.7135 21.2074 21.1288 16.792 21.1288 11.3425C21.1288 5.8929 16.7135 1.47754 11.2639 1.47754ZM15.2019 14.3656C14.4063 14.3656 13.7301 14.127 13.1335 13.7689L12.4572 16.9512H10.9058L11.8605 12.5756C11.4627 12.0187 11.065 11.3823 10.7866 10.7856V11.4619C10.7866 13.0926 9.47386 14.4054 7.88274 14.4054C6.29161 14.4054 4.97894 13.0926 4.97894 11.4619V7.48402H6.49051V11.4619C6.49051 12.2574 7.12696 12.8939 7.92251 12.8939C8.71808 12.8939 9.35453 12.2574 9.35453 11.4619V7.48402H10.8661C11.1843 8.47846 11.7015 9.67181 12.3776 10.7458C12.7754 9.23425 13.8892 8.31935 15.2815 8.31935C16.9123 8.31935 18.2648 9.67181 18.2648 11.3026C18.1853 13.0132 16.8328 14.3656 15.2019 14.3656Z" fill="#FEFEFE"/>
</g>
</g>
<defs>
<clipPath id="clip0_1556_1419">
<rect width="20.7164" height="20.7164" fill="white" transform="translate(0.905518 0.905518)"/>
</clipPath>
</defs>
</svg>
