<svg width="64" height="62" viewBox="0 0 64 62" fill="none" xmlns="http://www.w3.org/2000/svg">
<g id="Group 3496">
<path id="Subtract" fill-rule="evenodd" clip-rule="evenodd" d="M63.0389 34.0684H59.704C58.5771 45.0346 51.0958 54.1174 41.0034 57.5735V61.061C52.9451 57.4528 61.8646 46.881 63.0389 34.0684ZM41.0034 44.7336V40.124C42.714 38.4971 43.9861 36.4134 44.624 34.0684H48.3694C47.4342 38.5352 44.7207 42.3484 41.0034 44.7336ZM41.0034 53.4847V49.826C47.1033 46.8737 51.5407 41.0262 52.5308 34.0684H55.9054C54.827 42.9022 48.9729 50.2611 41.0034 53.4847ZM23.1061 53.5572V49.9127C16.9129 46.9891 12.3973 41.095 11.3974 34.0684H8.02282C9.10932 42.9691 15.0442 50.3724 23.1061 53.5572ZM23.1061 44.8487V40.2938C21.3037 38.6432 19.9639 36.4958 19.3035 34.0684H15.5582C16.5086 38.6077 19.2955 42.4721 23.1061 44.8487ZM23.1061 61.1152V57.635C12.922 54.226 5.35771 45.1002 4.22407 34.0684H0.88916C2.06939 46.9459 11.0733 57.5597 23.1061 61.1152Z" fill="url(#paint0_linear_1556_1217)"/>
<g id="Subtract_2">
<path fill-rule="evenodd" clip-rule="evenodd" d="M12.1582 25.279H8.69179C11.3096 14.7894 20.795 7.01836 32.0953 7.01836C44.4092 7.01836 54.5678 16.2458 56.0339 28.1632H59.8187C58.3026 14.1931 46.4689 3.31908 32.0955 3.31908C17.7143 3.31908 5.87561 14.2049 4.3699 28.1861H15.5122C16.5616 21.0291 22.1341 15.3419 29.2338 14.1206V17.8326L29.2336 17.8326V57.6205H35.1386V20.1685H35.1389V14.1528C42.9431 15.5843 48.8571 22.4209 48.8571 30.6387C48.8571 30.8212 48.8542 31.003 48.8484 31.1841H45.2037C45.211 31.0033 45.2148 30.8214 45.2148 30.6387C45.2148 25.6083 42.3835 21.2391 38.2275 19.0378V61.1641H35.1386V61.1636H29.2336V61.1642H26.1447V18.9437C21.8901 21.1129 18.9764 25.5355 18.9764 30.6387C18.9764 30.8214 18.9801 31.0033 18.9875 31.1841H15.3428L15.3428 31.184H4.20824V31.1841H0.88916C0.901188 13.9595 14.8682 0 32.0955 0C49.3229 0 63.2899 13.9595 63.3019 31.1841H63.3012C63.3017 31.2067 63.3019 31.2294 63.3019 31.2521H52.8544V30.3181C52.4235 19.2247 43.2942 10.3636 32.0953 10.3636C22.6564 10.3636 14.6877 16.6584 12.1582 25.279Z" fill="#D9D9D9"/>
<path fill-rule="evenodd" clip-rule="evenodd" d="M12.1582 25.279H8.69179C11.3096 14.7894 20.795 7.01836 32.0953 7.01836C44.4092 7.01836 54.5678 16.2458 56.0339 28.1632H59.8187C58.3026 14.1931 46.4689 3.31908 32.0955 3.31908C17.7143 3.31908 5.87561 14.2049 4.3699 28.1861H15.5122C16.5616 21.0291 22.1341 15.3419 29.2338 14.1206V17.8326L29.2336 17.8326V57.6205H35.1386V20.1685H35.1389V14.1528C42.9431 15.5843 48.8571 22.4209 48.8571 30.6387C48.8571 30.8212 48.8542 31.003 48.8484 31.1841H45.2037C45.211 31.0033 45.2148 30.8214 45.2148 30.6387C45.2148 25.6083 42.3835 21.2391 38.2275 19.0378V61.1641H35.1386V61.1636H29.2336V61.1642H26.1447V18.9437C21.8901 21.1129 18.9764 25.5355 18.9764 30.6387C18.9764 30.8214 18.9801 31.0033 18.9875 31.1841H15.3428L15.3428 31.184H4.20824V31.1841H0.88916C0.901188 13.9595 14.8682 0 32.0955 0C49.3229 0 63.2899 13.9595 63.3019 31.1841H63.3012C63.3017 31.2067 63.3019 31.2294 63.3019 31.2521H52.8544V30.3181C52.4235 19.2247 43.2942 10.3636 32.0953 10.3636C22.6564 10.3636 14.6877 16.6584 12.1582 25.279Z" fill="url(#paint1_linear_1556_1217)"/>
</g>
</g>
<defs>
<linearGradient id="paint0_linear_1556_1217" x1="31.964" y1="34.0684" x2="31.964" y2="61.1153" gradientUnits="userSpaceOnUse">
<stop stop-color="#00ACEA"/>
<stop offset="1" stop-color="#03488C"/>
</linearGradient>
<linearGradient id="paint1_linear_1556_1217" x1="29.0356" y1="24.634" x2="-4.38487" y2="-22.0063" gradientUnits="userSpaceOnUse">
<stop stop-color="#03488C"/>
<stop offset="1" stop-color="#0CEEFF"/>
</linearGradient>
</defs>
</svg>
