<svg width="25" height="25" viewBox="0 0 25 25" fill="none" xmlns="http://www.w3.org/2000/svg">
<g id="SVG">
<path id="Vector" d="M20.1708 15.962C18.9408 15.962 17.7508 15.762 16.6408 15.402C16.2908 15.282 15.9008 15.372 15.6308 15.642L14.0608 17.612C11.2308 16.262 8.58077 13.712 7.17077 10.782L9.12077 9.12203C9.39077 8.84203 9.47077 8.45203 9.36077 8.10203C8.99077 6.99203 8.80077 5.80203 8.80077 4.57203C8.80077 4.03203 8.35077 3.58203 7.81077 3.58203H4.35077C3.81077 3.58203 3.16077 3.82203 3.16077 4.57203C3.16077 13.862 10.8908 21.582 20.1708 21.582C20.8808 21.582 21.1608 20.952 21.1608 20.402V16.952C21.1608 16.412 20.7108 15.962 20.1708 15.962Z" fill="#ADADAD"/>
</g>
</svg>
