<svg width="24" height="25" viewBox="0 0 24 25" fill="none" xmlns="http://www.w3.org/2000/svg">
<g id="SVG" clip-path="url(#clip0_1556_1462)">
<path id="Vector" d="M21.3506 2.58691H2.6493C1.2042 2.58691 0.0991211 3.692 0.0991211 5.13709V20.4382C0.0991211 21.8832 1.2042 22.9883 2.6493 22.9883H21.3506C22.7957 22.9883 23.9008 21.8832 23.9008 20.4382V5.13709C23.9008 3.692 22.7957 2.58691 21.3506 2.58691ZM6.13454 5.64712C6.21955 5.56212 6.21955 5.47712 6.30455 5.39211C6.38956 5.30711 6.47456 5.22209 6.55957 5.22209C6.89959 5.05208 7.23962 5.13709 7.49463 5.39211C7.57964 5.47712 7.66464 5.56212 7.66464 5.64712C7.74966 5.73213 7.74966 5.90215 7.74966 5.98715C7.74966 6.24216 7.66464 6.41218 7.49463 6.58219C7.32462 6.7522 7.15461 6.8372 6.89959 6.8372C6.64458 6.8372 6.47456 6.7522 6.30455 6.58219C6.13454 6.41218 6.04953 6.24216 6.04953 5.98715C6.04953 5.90215 6.04953 5.73213 6.13454 5.64712ZM3.49936 5.98715C3.49936 5.73213 3.58437 5.56212 3.75437 5.39211L3.83938 5.30711C3.92438 5.30711 3.92438 5.22209 4.0094 5.22209C4.0944 5.13709 4.0944 5.13709 4.17941 5.13709C4.26441 5.13709 4.43442 5.13709 4.51942 5.13709C4.60444 5.13709 4.60444 5.13709 4.68944 5.22209C4.77445 5.22209 4.77445 5.30711 4.85945 5.30711L4.94445 5.39211C5.02946 5.47712 5.11447 5.56212 5.11447 5.64712C5.19948 5.73213 5.19948 5.90215 5.19948 5.98715C5.19948 6.07216 5.19948 6.24216 5.11447 6.32717C5.11447 6.41218 5.02946 6.49719 4.94445 6.58219C4.77445 6.7522 4.60444 6.8372 4.34941 6.8372C4.0944 6.8372 3.92438 6.7522 3.75437 6.58219C3.58437 6.41218 3.49936 6.24216 3.49936 5.98715ZM8.3447 17.293C8.68471 17.6329 8.68471 18.143 8.3447 18.483C8.17468 18.653 8.00467 18.738 7.74966 18.738C7.49463 18.738 7.32462 18.653 7.15461 18.483L4.60444 15.9328C4.26441 15.5928 4.26441 15.0828 4.60444 14.7427L7.15461 12.1926C7.49463 11.8526 8.00467 11.8526 8.3447 12.1926C8.68471 12.5326 8.68471 13.0427 8.3447 13.3826L6.38956 15.3378L8.3447 17.293ZM9.10974 6.7522C9.02474 6.6672 8.93974 6.6672 8.85473 6.58219C8.76973 6.49719 8.68471 6.41218 8.68471 6.32717C8.59971 6.24216 8.59971 6.07216 8.59971 5.98715C8.59971 5.90215 8.59971 5.73213 8.68471 5.64712C8.76972 5.56212 8.76973 5.47712 8.85473 5.39211C9.19475 5.05208 9.70478 5.05208 10.0448 5.39211C10.1298 5.47712 10.2148 5.56212 10.2148 5.64712C10.2998 5.73213 10.2998 5.90215 10.2998 5.98715C10.2998 6.07216 10.2998 6.24216 10.2148 6.32717C10.1298 6.41218 10.1298 6.49719 10.0448 6.58219C9.8748 6.7522 9.70478 6.8372 9.44977 6.8372C9.36477 6.8372 9.19475 6.8372 9.10974 6.7522ZM14.4651 12.2776L11.0648 19.0781C10.8949 19.4181 10.6399 19.5881 10.2998 19.5881C10.1298 19.5881 10.0448 19.5881 9.95981 19.503C9.53478 19.3331 9.36477 18.823 9.61978 18.3981L13.02 11.5975C13.19 11.1725 13.7001 11.0025 14.1251 11.2576C14.4651 11.4275 14.6351 11.9376 14.4651 12.2776ZM19.3954 15.9328L16.8453 18.483C16.6753 18.653 16.5053 18.738 16.2502 18.738C15.9953 18.738 15.8252 18.653 15.6552 18.483C15.3152 18.143 15.3152 17.6329 15.6552 17.293L17.6103 15.3378L15.6552 13.3826C15.3152 13.0427 15.3152 12.5326 15.6552 12.1926C15.9953 11.8526 16.5053 11.8526 16.8453 12.1926L19.3954 14.7427C19.7355 15.0828 19.7355 15.5928 19.3954 15.9328Z" fill="#0D6EFD"/>
</g>
<defs>
<clipPath id="clip0_1556_1462">
<rect width="23.8017" height="23.8017" fill="white" transform="translate(0.0991211 0.603271)"/>
</clipPath>
</defs>
</svg>
