<svg width="25" height="25" viewBox="0 0 25 25" fill="none" xmlns="http://www.w3.org/2000/svg">
<g id="SVG" clip-path="url(#clip0_1556_1469)">
<path id="Vector" d="M22.4049 2.58691H2.57014C1.4747 2.58691 0.58667 3.47494 0.58667 4.57038V21.0048C0.58667 22.1003 1.4747 22.9883 2.57014 22.9883H22.4049C23.5003 22.9883 24.3883 22.1003 24.3883 21.0048V4.57038C24.3883 3.47494 23.5003 2.58691 22.4049 2.58691Z" fill="#0D6EFD"/>
<path id="Vector_2" d="M3.31411 6.05792C3.7249 6.05792 4.05792 5.7249 4.05792 5.31411C4.05792 4.90332 3.7249 4.57031 3.31411 4.57031C2.90332 4.57031 2.57031 4.90332 2.57031 5.31411C2.57031 5.7249 2.90332 6.05792 3.31411 6.05792Z" fill="white"/>
<path id="Vector_3" d="M5.79336 6.05792C6.20415 6.05792 6.53716 5.7249 6.53716 5.31411C6.53716 4.90332 6.20415 4.57031 5.79336 4.57031C5.38257 4.57031 5.04956 4.90332 5.04956 5.31411C5.04956 5.7249 5.38257 6.05792 5.79336 6.05792Z" fill="white"/>
<path id="Vector_4" d="M8.27261 6.05792C8.6834 6.05792 9.01641 5.7249 9.01641 5.31411C9.01641 4.90332 8.6834 4.57031 8.27261 4.57031C7.86182 4.57031 7.52881 4.90332 7.52881 5.31411C7.52881 5.7249 7.86182 6.05792 8.27261 6.05792Z" fill="white"/>
<path id="Vector_5" d="M14.2011 16.2537C13.606 16.8491 13.4573 17.5185 14.3492 18.4108C15.2417 19.3033 16.8044 18.7823 16.8781 20.0471C17.7706 18.6339 17.2497 17.2207 16.3581 16.3284C15.4659 15.4352 14.7217 15.659 14.2011 16.2537Z" fill="white"/>
<path id="Vector_6" d="M14.1261 16.0305C14.4236 15.733 14.4984 15.2867 14.2011 14.9151C13.7546 14.2454 7.50692 8.81564 7.50692 8.81564C7.2094 8.51812 6.76311 8.44407 6.61435 8.66721C6.46593 8.81564 6.53997 9.26192 6.76311 9.55977C6.76311 9.55977 11.0028 14.7667 12.8623 16.2543C13.2342 16.4775 13.6808 16.4775 13.978 16.179L14.1261 16.0305Z" fill="white"/>
</g>
<defs>
<clipPath id="clip0_1556_1469">
<rect width="23.8017" height="23.8017" fill="white" transform="translate(0.58667 0.603271)"/>
</clipPath>
</defs>
</svg>
