<svg width="25" height="25" viewBox="0 0 25 25" fill="none" xmlns="http://www.w3.org/2000/svg">
<g id="SVG" clip-path="url(#clip0_1556_1482)">
<path id="Vector" d="M12.0775 0.917481C14.0562 0.917469 15.6236 0.917445 16.8503 1.08701C18.1126 1.26151 19.1344 1.62919 19.9402 2.45767C20.746 3.28614 21.1036 4.33669 21.2734 5.63461C21.4382 6.89576 21.4382 8.50725 21.4382 10.5417V15.0949C21.4382 17.1294 21.4382 18.7409 21.2734 20.002C21.1036 21.2999 20.746 22.3505 19.9402 23.179C19.1344 24.0075 18.1126 24.3751 16.8503 24.5495C15.6236 24.7191 14.0562 24.7191 12.0776 24.7191H11.9559C9.97719 24.7191 8.40979 24.7191 7.18318 24.5495C5.92079 24.3751 4.89902 24.0075 4.09322 23.179C3.28744 22.3505 2.92983 21.2999 2.7601 20.002C2.5952 18.7409 2.59521 17.1294 2.59521 15.0949V10.5417C2.59521 8.50723 2.5952 6.89578 2.7601 5.63461C2.92983 4.33669 3.28744 3.28614 4.09322 2.45767C4.89902 1.62919 5.92079 1.26151 7.18318 1.08701C8.40982 0.917445 9.97719 0.917469 11.9559 0.917481H12.0775Z" fill="#0D6EFD"/>
<path id="Vector_2" d="M10.0332 21.2481C10.0332 20.9741 10.2108 20.7522 10.4299 20.7522H13.6035C13.8225 20.7522 14.0001 20.9741 14.0001 21.2481C14.0001 21.522 13.8225 21.7439 13.6035 21.7439H10.4299C10.2108 21.7439 10.0332 21.522 10.0332 21.2481Z" fill="#010407"/>
<path id="Vector_3" d="M6.38703 13.0039L9.24374 14.7346C9.31759 14.7791 9.39621 14.8017 9.4775 14.8017C9.58337 14.8017 9.68658 14.7625 9.77628 14.6881C9.9369 14.5545 10.0329 14.3266 10.0329 14.0785V14.0595C10.0329 13.7791 9.90674 13.5217 9.71153 13.4035L7.92484 12.3221L9.71153 11.2404C9.90674 11.1222 10.0329 10.8648 10.0329 10.5845V10.5657C10.0329 10.3174 9.9369 10.0893 9.77628 9.95606C9.68748 9.88213 9.584 9.84302 9.47718 9.84302C9.39661 9.84302 9.31583 9.86609 9.24351 9.90986L6.38698 11.6404C6.19195 11.7587 6.06592 12.0162 6.06592 12.2963V12.348C6.06587 12.6277 6.19181 12.8852 6.38703 13.0039Z" fill="#010407"/>
<path id="Vector_4" d="M10.1741 16.4598C10.3116 16.6636 10.5327 16.7853 10.7657 16.7853H10.7845C11.1044 16.7853 11.3845 16.5636 11.482 16.2343L13.9653 7.90332C14.0365 7.6629 13.9971 7.3975 13.8595 7.19337C13.722 6.98956 13.5008 6.86792 13.2678 6.86792H13.249C12.9291 6.86792 12.6485 7.08952 12.5511 7.41891L10.0676 15.7505C9.99687 15.9912 10.0367 16.2562 10.1741 16.4598Z" fill="#010407"/>
<path id="Vector_5" d="M14 10.5845C14 10.8644 14.126 11.1219 14.3213 11.2407L16.1079 12.3221L14.3213 13.4034C14.1261 13.5217 14 13.7791 14 14.0594V14.0784C14 14.3265 14.0959 14.5544 14.2567 14.6881C14.346 14.7624 14.4493 14.8017 14.5553 14.8017C14.6365 14.8017 14.715 14.7791 14.7894 14.7344L17.6459 13.0037C17.8409 12.8852 17.9669 12.6277 17.9669 12.3479V12.2962C17.9669 12.016 17.8409 11.7586 17.6457 11.6403L14.7892 9.90974C14.7172 9.86609 14.6365 9.84302 14.556 9.84302C14.4493 9.84302 14.3457 9.88201 14.2569 9.95582C14.0961 10.0893 14.0001 10.3173 14.0001 10.5657L14 10.5845Z" fill="#010407"/>
</g>
<defs>
<clipPath id="clip0_1556_1482">
<rect width="23.8017" height="23.8017" fill="white" transform="translate(0.611328 0.91748)"/>
</clipPath>
</defs>
</svg>
