<svg width="24" height="25" viewBox="0 0 24 25" fill="none" xmlns="http://www.w3.org/2000/svg">
<g id="SVG" clip-path="url(#clip0_1556_1493)">
<g id="Clip path group">
<mask id="mask0_1556_1493" style="mask-type:luminance" maskUnits="userSpaceOnUse" x="0" y="0" width="24" height="25">
<g id="clip0_1271_2655">
<path id="Vector" d="M23.9008 0.91748H0.0991211V24.7191H23.9008V0.91748Z" fill="white"/>
</g>
</mask>
<g mask="url(#mask0_1556_1493)">
<g id="Group">
<path id="Vector_2" d="M20.0631 5.95401C20.7177 5.7125 20.8153 5.35302 20.8153 5.16051C20.8153 4.96799 20.7177 4.60817 20.0634 4.367L12.1533 1.445C11.3976 1.16568 10.1095 1.16603 9.35377 1.44465L1.44357 4.36665C0.789721 4.60817 0.692064 4.96764 0.692064 5.16016C0.692064 5.35267 0.789721 5.7125 1.44357 5.95366L9.35377 8.87567C9.73144 9.01498 10.2288 9.09198 10.7535 9.09198C11.2782 9.09198 11.7752 9.01498 12.1529 8.87567L20.0631 5.95401ZM8.85918 9.89109L1.80304 7.24595C1.61998 7.17699 1.45407 7.14234 1.28746 7.14234C0.62906 7.14234 0.215332 7.65548 0.215332 8.45003V17.2636C0.215332 18.1923 0.829974 19.1236 1.64343 19.43L8.60121 22.0758C8.78428 22.1448 8.92429 22.1798 9.11015 22.1798C9.8529 22.1798 10.3661 21.6172 10.3661 20.8717V12.0584C10.3661 11.1858 9.71639 10.2138 8.85918 9.89109ZM13.3797 20.3715C13.1316 20.299 12.7532 20.0134 12.7532 19.6378L12.743 18.6091C12.743 18.2329 13.126 17.9462 13.3846 17.8706L13.84 17.7285C13.9338 17.4124 14.0609 17.1048 14.2187 16.8111L13.9723 16.3612C13.8152 16.0746 13.8711 15.6829 14.1032 15.4505L14.8309 14.7278C15.0479 14.5111 15.4445 14.4463 15.7462 14.6118L16.1869 14.8699C16.4372 14.7393 16.7264 14.6311 17.1236 14.5191L17.2559 14.1337C17.3491 13.8142 17.6697 13.5586 17.9836 13.5586L19.0711 13.5478C19.2777 13.5478 19.5594 13.6391 19.7292 14.0753L19.8716 14.4102C20.2133 14.5069 20.5447 14.6416 20.8591 14.8114L21.1864 14.588C21.3204 14.5149 21.5664 14.489 21.5664 14.5086V8.45003C21.5664 7.99746 21.4517 7.60263 21.1107 7.36671C20.7502 7.11644 20.3193 7.07269 19.8573 7.24631L12.8733 9.89143C12.064 10.1963 11.4161 11.148 11.4161 12.0584V20.8717C11.4161 21.3737 11.6282 21.7731 11.952 21.997C12.1246 22.1167 12.3455 22.1777 12.5709 22.1777C12.7448 22.1777 12.9401 22.1409 13.1351 22.067L14.0794 21.6428L14.1876 21.4394C13.9997 21.102 13.8681 20.802 13.7773 20.5094L13.3797 20.3715Z" fill="#0D6EFD"/>
<path id="Vector_3" d="M18.5222 16.2837C16.9362 16.2837 15.6465 17.5738 15.6465 19.1598C15.6465 20.7458 16.9366 22.036 18.5222 22.036C20.1078 22.036 21.3984 20.7458 21.3984 19.1598C21.3984 17.5738 20.1082 16.2837 18.5222 16.2837ZM18.481 20.2305C18.3357 20.2343 18.1912 20.2088 18.056 20.1558C17.9207 20.1028 17.7975 20.0231 17.6934 19.9218C17.5894 19.8203 17.5067 19.6991 17.4503 19.5652C17.3938 19.4314 17.3648 19.2876 17.3648 19.1424C17.3648 18.9971 17.3938 18.8533 17.4503 18.7194C17.5067 18.5855 17.5894 18.4643 17.6934 18.3629C17.7975 18.2615 17.9207 18.1819 18.056 18.1289C18.1912 18.0759 18.3357 18.0504 18.481 18.0541C18.7648 18.0613 19.0345 18.1791 19.2328 18.3824C19.4309 18.5857 19.5419 18.8584 19.5419 19.1424C19.5419 19.4262 19.4309 19.6989 19.2328 19.9022C19.0345 20.1055 18.7648 20.2234 18.481 20.2305Z" fill="#0D6EFD"/>
<path id="Vector_4" d="M23.8656 18.5815C23.8656 18.4023 23.7858 18.2398 23.6139 18.1895L22.9028 18.011C22.7911 17.564 22.6444 17.1429 22.4117 16.7589L22.7333 16.1985C22.8195 16.0414 22.7935 15.8089 22.6668 15.6819L21.943 14.9545C21.8638 14.8754 21.7445 14.8327 21.6272 14.8327C21.5569 14.8327 21.4873 14.8481 21.4285 14.8806L20.8579 15.1932C20.4738 14.9655 20.0582 14.7958 19.6244 14.6899L19.4388 14.1785C19.3885 14.0066 19.2061 13.8418 19.0266 13.8418L17.994 13.859C17.8148 13.859 17.625 14.0066 17.5747 14.1785L17.3843 14.7662C16.9572 14.8772 16.5544 15.0182 16.1854 15.2404L15.5837 14.896C15.5193 14.8622 15.4475 14.8449 15.3747 14.8456C15.2603 14.8456 15.1441 14.8852 15.0671 14.9626L14.3397 15.6864C14.213 15.8131 14.1794 16.0437 14.2655 16.2009L14.6009 16.8131C14.3834 17.1815 14.2193 17.579 14.1136 17.9934L13.4818 18.1902C13.3096 18.2405 13.0771 18.4282 13.0771 18.6074L13.0874 19.6361C13.0874 19.8153 13.3096 20.0033 13.4818 20.0536L14.0527 20.2507C14.1594 20.6708 14.3558 21.067 14.5704 21.4314L14.2505 22.0442C14.1644 22.2014 14.2053 22.4338 14.332 22.5608L15.0632 23.2883C15.1423 23.3673 15.2634 23.4101 15.3814 23.4101C15.4525 23.4101 15.5225 23.3947 15.5816 23.3625L16.1844 23.0334C16.5577 23.2584 16.9616 23.4284 17.3836 23.5382L17.574 24.1465C17.6244 24.3184 17.798 24.5672 17.9775 24.5672L19.0293 24.5679C19.2086 24.5679 19.3882 24.3184 19.4385 24.1465L19.6241 23.6149C20.064 23.5074 20.4785 23.3054 20.8579 23.0807L21.4291 23.3778C21.4858 23.4087 21.552 23.4234 21.6196 23.4234C21.74 23.4234 21.8642 23.3775 21.9454 23.2963L22.6731 22.5651C22.7998 22.4384 22.833 22.2038 22.7473 22.0467L22.4407 21.4853C22.6764 21.0961 22.8523 20.6739 22.9626 20.2325L23.6126 20.0536C23.7848 20.0033 23.8796 19.8149 23.8796 19.6357L23.8656 18.5815ZM18.5225 22.3383C16.7703 22.3383 15.3443 20.9123 15.3443 19.1601C15.3443 17.4075 16.7703 15.9819 18.5225 15.9819C20.2751 15.9819 21.7008 17.4078 21.7008 19.1601C21.7008 20.9126 20.2751 22.3383 18.5225 22.3383Z" fill="#0D6EFD"/>
</g>
</g>
</g>
</g>
<defs>
<clipPath id="clip0_1556_1493">
<rect width="23.8017" height="23.8017" fill="white" transform="translate(0.0991211 0.91748)"/>
</clipPath>
</defs>
</svg>
