<svg width="25" height="25" viewBox="0 0 25 25" fill="none" xmlns="http://www.w3.org/2000/svg">
<g id="SVG" clip-path="url(#clip0_1556_1506)">
<path id="Vector" d="M16.8953 2.90088C19.2921 2.91556 20.59 3.03248 21.4368 3.96394C22.405 5.02911 22.405 6.74349 22.405 10.1722V17.4457C22.405 20.8743 22.405 22.5888 21.4368 23.6538C20.4685 24.7191 18.9101 24.7191 15.7934 24.7191H9.18189C6.06516 24.7191 4.5068 24.7191 3.53855 23.6538C2.57031 22.5888 2.57031 20.8743 2.57031 17.4457V10.1722C2.57031 6.74349 2.57031 5.02911 3.53855 3.96394C4.38526 3.03248 5.68323 2.91556 8.07996 2.90088" fill="#0D6EFD"/>
<path id="Vector_2" d="M17.1542 9.09819L10.9786 15.9549L7.7711 12.7868C7.62806 12.665 7.44408 12.6014 7.25591 12.6086C7.06775 12.6158 6.88925 12.6934 6.7561 12.8258C6.62295 12.9583 6.54494 13.1358 6.53767 13.323C6.5304 13.5102 6.5944 13.6932 6.71689 13.8354L10.4552 17.5538C10.5932 17.6939 10.7813 17.7742 10.9786 17.7769C11.0804 17.7747 11.1806 17.7517 11.2731 17.7095C11.3658 17.6673 11.4487 17.6068 11.5169 17.5315L18.2458 10.0947C18.3786 9.94778 18.4474 9.75437 18.4368 9.55702C18.4263 9.35968 18.3375 9.17457 18.1897 9.04242C18.042 8.91027 17.8476 8.84191 17.6491 8.85236C17.4508 8.86283 17.2646 8.95126 17.1318 9.09819H17.1542Z" fill="white"/>
<path id="Vector_3" d="M8.0249 2.77697C8.0249 2.02384 8.63541 1.41333 9.38854 1.41333H15.5869C16.34 1.41333 16.9505 2.02385 16.9505 2.77697V4.01664C16.9505 4.76975 16.34 5.38027 15.5869 5.38027H9.38854C8.63541 5.38027 8.0249 4.76976 8.0249 4.01664V2.77697Z" fill="white" stroke="#0D6EFD" stroke-width="0.991736"/>
</g>
<defs>
<clipPath id="clip0_1556_1506">
<rect width="23.8017" height="23.8017" fill="white" transform="translate(0.58667 0.91748)"/>
</clipPath>
</defs>
</svg>
